<?xml version="1.0" standalone="no"?>
<!DOCTYPE svg PUBLIC "-//W3C//DTD SVG 20010904//EN"
 "http://www.w3.org/TR/2001/REC-SVG-20010904/DTD/svg10.dtd">
<svg version="1.0" xmlns="http://www.w3.org/2000/svg"
 width="1280.000000pt" height="973.000000pt" viewBox="0 0 1280.000000 973.000000"
 preserveAspectRatio="xMidYMid meet">
<g transform="translate(0.000000,973.000000) scale(0.100000,-0.100000)"
fill="#000000" stroke="none">
<path d="M4503 9713 c-14 -12 -27 -52 -42 -123 -13 -58 -63 -253 -113 -435
-49 -181 -119 -451 -154 -600 -74 -309 -120 -481 -164 -610 -24 -71 -28 -92
-18 -101 21 -19 397 -242 618 -366 453 -255 1066 -576 1251 -656 74 -32 211
-104 304 -159 94 -55 341 -189 550 -298 913 -475 1340 -704 1535 -822 63 -38
169 -98 235 -133 66 -35 228 -124 360 -198 132 -75 308 -168 390 -208 204 -98
273 -151 218 -168 -178 -53 -879 -191 -1657 -327 -710 -123 -1044 -185 -1248
-229 -103 -22 -244 -47 -315 -55 -189 -23 -241 -32 -428 -75 -93 -21 -325 -66
-515 -99 -466 -82 -750 -136 -840 -161 -76 -21 -248 -51 -760 -135 -322 -53
-491 -84 -800 -149 -118 -25 -360 -70 -538 -101 -178 -30 -416 -73 -530 -96
-114 -22 -470 -89 -792 -150 -696 -131 -1031 -196 -1038 -204 -9 -9 26 -74 66
-122 20 -24 93 -93 162 -153 139 -120 306 -289 513 -516 140 -154 305 -311
682 -649 116 -104 404 -380 640 -614 713 -706 1031 -1000 1065 -984 32 15 166
15 205 -1 29 -12 46 -14 78 -6 109 26 290 32 1253 39 562 5 1027 12 1033 15
33 21 1 80 -73 133 -61 45 -227 191 -556 493 -344 316 -2311 2064 -2430 2160
-106 86 -160 144 -160 174 0 8 50 20 320 76 135 28 427 96 650 150 223 54 509
122 635 150 127 29 298 72 380 95 83 24 227 59 320 78 305 64 569 123 1275
286 870 200 1016 233 1693 376 795 167 1139 245 1682 381 430 108 954 250 969
264 5 5 -344 185 -775 401 -431 215 -1172 589 -1647 831 -1200 610 -1452 736
-1807 901 -385 180 -877 422 -1140 561 -110 58 -274 144 -365 190 -91 47 -181
98 -200 114 l-35 29 17 34 c12 23 19 69 22 144 3 61 16 254 30 430 14 176 30
401 36 500 22 363 46 609 67 693 5 21 2 22 -45 22 -33 0 -56 -6 -69 -17z"/>
<path d="M5130 9721 c-8 -5 -32 -11 -53 -15 l-38 -7 6 -107 c20 -364 28 -447
99 -1034 20 -156 42 -356 50 -446 9 -90 18 -168 22 -173 23 -37 1088 -537
2194 -1029 710 -316 1033 -464 1435 -660 286 -139 383 -183 875 -397 1567
-682 2019 -892 2035 -944 5 -14 13 -17 34 -13 31 7 48 -8 28 -23 -6 -6 -149
-52 -317 -103 -388 -117 -960 -298 -1687 -534 -315 -102 -646 -206 -735 -231
-519 -146 -2705 -868 -2743 -906 -12 -13 9 -31 220 -193 88 -67 237 -183 330
-257 285 -226 603 -460 1600 -1175 629 -452 1845 -1307 1944 -1368 9 -6 2008
-11 2359 -6 1 0 -4 13 -12 29 -23 43 -69 77 -180 133 -149 75 -585 337 -631
379 -22 21 -74 53 -115 72 -41 18 -149 80 -240 137 -91 57 -284 176 -430 265
-146 89 -393 242 -550 340 -157 98 -476 290 -710 428 -775 455 -1109 659
-1285 782 -33 23 -102 65 -154 95 -52 29 -108 65 -125 80 -17 15 -76 50 -131
79 -114 58 -198 117 -193 133 3 7 67 34 144 61 360 127 592 213 1439 529 1219
456 1576 584 2070 748 121 40 288 99 370 130 83 32 218 79 300 105 83 26 179
61 214 79 69 33 171 118 171 142 0 25 -114 89 -257 147 -76 30 -232 99 -348
152 -398 184 -701 314 -1535 660 -702 291 -829 345 -1220 517 -162 72 -405
175 -540 230 -336 137 -440 184 -691 309 -296 147 -577 264 -1409 584 -588
226 -1070 442 -1090 487 -5 13 -33 115 -60 228 -28 112 -96 369 -150 570 -54
201 -129 484 -166 630 -80 318 -106 381 -144 361z"/>
<path d="M4732 9693 c-35 -4 -45 -9 -54 -31 -6 -16 -12 -117 -14 -242 -1 -118
-10 -294 -19 -390 -51 -569 -66 -774 -68 -934 l-2 -179 65 -45 c36 -24 270
-145 520 -268 250 -124 705 -349 1010 -502 305 -153 760 -374 1010 -492 440
-206 1038 -502 2525 -1250 391 -196 765 -378 832 -405 116 -45 173 -82 173
-111 0 -16 12 -13 -290 -79 -242 -54 -625 -149 -1645 -410 -247 -63 -666 -165
-930 -226 -264 -61 -714 -171 -1000 -245 -286 -73 -943 -235 -1460 -359 -1533
-366 -2005 -486 -2005 -506 0 -25 42 -71 129 -141 42 -34 209 -175 371 -313
799 -679 925 -784 1135 -942 66 -50 140 -112 165 -138 52 -55 222 -206 402
-358 69 -59 171 -148 224 -198 54 -50 112 -98 129 -106 16 -9 87 -71 157 -139
108 -104 353 -314 668 -571 l75 -61 55 9 c69 11 1672 26 1920 18 102 -4 221
-10 266 -14 150 -14 195 14 117 72 -21 15 -91 76 -155 134 -65 58 -243 205
-395 325 -153 120 -478 381 -723 579 -568 459 -594 479 -813 631 -219 153
-258 183 -688 530 -185 149 -412 327 -504 395 -180 133 -368 283 -399 317 -10
12 -16 27 -13 34 2 7 82 32 183 57 431 106 907 243 1764 511 747 233 1035 319
1985 590 484 139 1022 294 1195 347 412 124 920 292 920 303 0 17 -84 58 -460
225 -468 209 -1225 550 -1430 645 -85 40 -281 131 -435 202 -154 72 -473 225
-710 341 -530 258 -611 296 -1315 614 -310 140 -659 300 -775 355 -115 55
-289 133 -385 174 -96 41 -260 119 -365 174 -104 55 -255 132 -335 171 -80 39
-165 81 -190 93 -53 27 -71 62 -50 100 26 50 9 254 -79 956 -28 217 -57 473
-65 568 -9 95 -18 177 -21 182 -6 10 -113 11 -203 3z"/>
</g>
</svg>
